<svg width="550" height="544" viewBox="0 0 550 544" fill="none" xmlns="http://www.w3.org/2000/svg">
<mask id="path-1-inside-1_312_1194" fill="white">
<path fill-rule="evenodd" clip-rule="evenodd" d="M20.4248 167.771C7.25853 199.906 0 235.088 0 271.964C0 305.271 5.92129 337.196 16.7686 366.741L52.0278 346.385C44.2256 322.997 40 297.974 40 271.964C40 242.378 45.4676 214.068 55.4475 187.991L20.4248 167.771ZM67.7687 91.1818L103.189 111.632C137.236 75.1632 182.757 49.5445 234 40.5286V0C168.01 9.86425 109.684 43.1741 67.7687 91.1818ZM457.45 420.088C424.195 461 377.454 490.51 324 501.848V542.612C392.205 530.345 451.676 492.929 492.47 440.306L457.45 420.088ZM535.241 361.077L499.812 340.622C506.436 318.904 510 295.85 510 271.964C510 244.494 505.286 218.124 496.624 193.62L531.779 173.323C543.549 203.942 550 237.2 550 271.964C550 303.154 544.808 333.13 535.241 361.077ZM234 543.929C164.512 533.541 103.521 497.157 61.2413 444.988L96.3922 424.694C131.06 465.198 179.266 493.77 234 503.4V543.929ZM324 1.31699C388.754 12.963 445.635 47.278 486.135 95.7525L450.882 116.106C418.167 79.2155 374.023 52.6906 324 42.0803V1.31699Z"/>
</mask>
<path fill-rule="evenodd" clip-rule="evenodd" d="M20.4248 167.771C7.25853 199.906 0 235.088 0 271.964C0 305.271 5.92129 337.196 16.7686 366.741L52.0278 346.385C44.2256 322.997 40 297.974 40 271.964C40 242.378 45.4676 214.068 55.4475 187.991L20.4248 167.771ZM67.7687 91.1818L103.189 111.632C137.236 75.1632 182.757 49.5445 234 40.5286V0C168.01 9.86425 109.684 43.1741 67.7687 91.1818ZM457.45 420.088C424.195 461 377.454 490.51 324 501.848V542.612C392.205 530.345 451.676 492.929 492.47 440.306L457.45 420.088ZM535.241 361.077L499.812 340.622C506.436 318.904 510 295.85 510 271.964C510 244.494 505.286 218.124 496.624 193.62L531.779 173.323C543.549 203.942 550 237.2 550 271.964C550 303.154 544.808 333.13 535.241 361.077ZM234 543.929C164.512 533.541 103.521 497.157 61.2413 444.988L96.3922 424.694C131.06 465.198 179.266 493.77 234 503.4V543.929ZM324 1.31699C388.754 12.963 445.635 47.278 486.135 95.7525L450.882 116.106C418.167 79.2155 374.023 52.6906 324 42.0803V1.31699Z" fill="#D9D9D9" fill-opacity="0.5"/>
<path d="M20.4248 167.771L40.4248 133.13L0.770692 110.235L-16.589 152.606L20.4248 167.771ZM16.7686 366.741L-20.7807 380.527L-4.39807 425.15L36.7686 401.382L16.7686 366.741ZM52.0278 346.385L72.0278 381.026L100.305 364.7L89.972 333.726L52.0278 346.385ZM55.4475 187.991L92.8052 202.288L105.003 170.414L75.4475 153.35L55.4475 187.991ZM67.7687 91.1818L37.6372 64.8741L5.65297 101.507L47.7687 125.823L67.7687 91.1818ZM103.189 111.632L83.1893 146.273L110.728 162.172L132.428 138.929L103.189 111.632ZM234 40.5286L240.931 79.9235L274 74.1052V40.5286H234ZM234 0H274V-46.4237L228.086 -39.5605L234 0ZM457.45 420.088L477.45 385.447L447.919 368.397L426.411 394.857L457.45 420.088ZM324 501.848L315.7 462.719L284 469.443V501.848H324ZM324 542.612H284V590.448L331.08 581.98L324 542.612ZM492.47 440.306L524.083 464.813L552.168 428.585L512.47 405.665L492.47 440.306ZM499.812 340.622L461.552 328.952L452.276 359.365L479.812 375.263L499.812 340.622ZM535.241 361.077L515.241 395.718L557.34 420.024L573.084 374.032L535.241 361.077ZM496.624 193.62L476.624 158.979L447.829 175.603L458.911 206.952L496.624 193.62ZM531.779 173.323L569.116 158.971L552.32 115.276L511.779 138.682L531.779 173.323ZM61.2413 444.988L41.2413 410.347L0.665673 433.774L30.1654 470.173L61.2413 444.988ZM234 543.929L228.086 583.489L274 590.352V543.929H234ZM96.3922 424.694L126.781 398.684L105.172 373.437L76.3921 390.053L96.3922 424.694ZM234 503.4H274V469.823L240.931 464.005L234 503.4ZM486.135 95.7525L506.135 130.393L547.33 106.61L516.831 70.106L486.135 95.7525ZM324 1.31699L331.08 -38.0514L284 -46.5189V1.31699H324ZM450.882 116.106L420.955 142.646L442.613 167.068L470.882 150.747L450.882 116.106ZM324 42.0803H284V74.4859L315.7 81.2098L324 42.0803ZM40 271.964C40 240.378 46.2101 210.342 57.4386 182.936L-16.589 152.606C-31.6931 189.471 -40 229.797 -40 271.964H40ZM54.318 352.956C45.0678 327.76 40 300.499 40 271.964H-40C-40 310.044 -33.2252 346.631 -20.7807 380.527L54.318 352.956ZM32.0278 311.744L-3.23139 332.1L36.7686 401.382L72.0278 381.026L32.0278 311.744ZM0 271.964C0 302.331 4.93715 331.627 14.0836 359.043L89.972 333.726C83.5141 314.368 80 293.617 80 271.964H0ZM18.0898 173.694C6.39052 204.264 0 237.415 0 271.964H80C80 247.341 84.5447 223.873 92.8052 202.288L18.0898 173.694ZM75.4475 153.35L40.4248 133.13L0.424819 202.412L35.4475 222.632L75.4475 153.35ZM47.7687 125.823L83.1893 146.273L123.189 76.9909L87.7687 56.5408L47.7687 125.823ZM227.069 1.13374C167.012 11.7004 113.739 41.7165 73.9509 84.3351L132.428 138.929C160.733 108.61 198.502 87.3887 240.931 79.9235L227.069 1.13374ZM194 0V40.5286H274V0H194ZM97.9002 117.489C133.778 76.3966 183.62 47.9754 239.914 39.5605L228.086 -39.5605C152.401 -28.2469 85.5899 9.9515 37.6372 64.8741L97.9002 117.489ZM426.411 394.857C398.76 428.875 359.958 453.332 315.7 462.719L332.3 540.978C394.951 527.689 449.63 493.125 488.489 445.318L426.411 394.857ZM284 501.848V542.612H364V501.848H284ZM331.08 581.98C409.312 567.91 477.415 525.013 524.083 464.813L460.857 415.799C425.937 460.844 375.097 492.78 316.92 503.243L331.08 581.98ZM512.47 405.665L477.45 385.447L437.45 454.729L472.47 474.947L512.47 405.665ZM479.812 375.263L515.241 395.718L555.241 326.436L519.812 305.981L479.812 375.263ZM470 271.964C470 291.852 467.036 310.974 461.552 328.952L538.072 352.292C545.837 326.833 550 299.848 550 271.964H470ZM458.911 206.952C466.081 227.233 470 249.098 470 271.964H550C550 239.889 544.492 209.014 534.337 180.288L458.911 206.952ZM511.779 138.682L476.624 158.979L516.624 228.261L551.779 207.964L511.779 138.682ZM590 271.964C590 232.216 582.619 194.098 569.116 158.971L494.443 187.675C504.48 213.786 510 242.184 510 271.964H590ZM573.084 374.032C584.06 341.971 590 307.619 590 271.964H510C510 298.688 505.555 324.29 497.397 348.121L573.084 374.032ZM30.1654 470.173C78.5325 529.853 148.387 571.575 228.086 583.489L239.914 504.368C180.637 495.507 128.509 464.46 92.3172 419.803L30.1654 470.173ZM76.3921 390.053L41.2413 410.347L81.2413 479.629L116.392 459.335L76.3921 390.053ZM240.931 464.005C195.613 456.032 155.606 432.361 126.781 398.684L66.0035 450.704C106.514 498.034 162.919 531.508 227.069 542.795L240.931 464.005ZM274 543.929V503.4H194V543.929H274ZM516.831 70.106C470.499 14.651 405.354 -24.6932 331.08 -38.0514L316.92 40.6853C372.154 50.6193 420.771 79.905 455.439 121.399L516.831 70.106ZM470.882 150.747L506.135 130.393L466.135 61.1115L430.882 81.465L470.882 150.747ZM315.7 81.2098C357.117 89.9945 393.754 111.974 420.955 142.646L480.809 89.5663C442.58 46.4572 390.93 15.3866 332.3 2.95081L315.7 81.2098ZM284 1.31699V42.0803H364V1.31699H284Z" fill="black" mask="url(#path-1-inside-1_312_1194)"/>
<path fill-rule="evenodd" clip-rule="evenodd" d="M234 84.6184C150.15 105.417 88 181.183 88 271.464C88 361.746 150.15 437.511 234 458.311V416.745C172.517 397.083 128 339.472 128 271.464C128 203.457 172.517 145.846 234 126.184V84.6184ZM324 417.671C387.03 398.946 433 340.574 433 271.464C433 202.355 387.03 143.983 324 125.258V83.8999C409.363 103.618 473 180.11 473 271.464C473 362.819 409.363 439.311 324 459.029V417.671Z" fill="black"/>
<rect x="194" y="111.964" width="40" height="233" fill="black"/>
<rect x="324" y="200.964" width="40" height="233" fill="black"/>
<rect x="194" y="291.964" width="40" height="170" transform="rotate(-90 194 291.964)" fill="black"/>
</svg>
