<svg width="48" height="33" viewBox="0 0 48 33" fill="none" xmlns="http://www.w3.org/2000/svg">
<g clip-path="url(#clip0_1256_15443)">
<path d="M12.1224 3.58984C12.1224 3.58984 10.3906 4.1376 9.94254 5.33423C9.73575 5.89041 9.30495 10.0196 8.06424 11.4859C6.82353 12.9522 12.872 9.44659 12.872 9.44659L12.1224 3.59827V3.58984Z" fill="url(#paint0_linear_1256_15443)"/>
<path d="M0.138672 9.86819C2.2496 8.78111 3.81772 11.4777 6.95397 11.7727C10.0902 12.0676 10.4865 3.98616 12.115 3.5901C13.752 3.19403 21.1704 12.7502 24.7892 13.7614L24.367 27.3878C24.367 27.3878 11.038 27.2614 9.02182 26.5114C6.98843 25.7614 0.138672 9.86819 0.138672 9.86819Z" fill="url(#paint1_linear_1256_15443)"/>
<path d="M47.879 9.75854C47.879 9.75854 46.4057 13.1967 44.6222 16.9636C43.5969 19.1378 42.4595 21.4215 41.4515 23.208C40.4348 25.0029 39.5473 26.3091 38.9959 26.5113C37.2554 27.1602 27.1747 27.3372 24.3745 27.3793H24.0384C23.7886 27.3793 23.6507 27.3793 23.6507 27.3793L23.5818 25.0451L23.2285 13.7529C23.4698 13.6855 23.7369 13.576 24.0126 13.4327C25.5635 12.6406 27.571 10.7951 29.5096 8.90742C32.3271 6.16865 34.9894 3.34562 35.8941 3.56472C37.5225 3.96079 36.9022 12.2361 40.0298 11.9496C43.166 11.6546 46.2937 8.84 47.879 9.75011V9.75854Z" fill="url(#paint2_linear_1256_15443)"/>
<path d="M39.5219 11.9242C37.1094 10.045 38.0658 6.69952 37.6436 5.59559C37.0663 4.09559 35.8945 3.58154 35.8945 3.58154C35.8945 3.58154 36.5752 4.06188 37.1094 7.75289C37.6436 11.4439 39.5219 11.9242 39.5219 11.9242Z" fill="url(#paint3_linear_1256_15443)"/>
<g style="mix-blend-mode:multiply" opacity="0.5">
<path d="M44.6225 16.9636C43.5972 19.1377 42.4598 21.4214 41.4518 23.2079L24.4437 24.9692L23.5735 25.0534L14.4232 25.9973L5.10067 17.8821C4.10982 14.6293 10.2789 10.4158 18.5762 9.00008C21.9795 8.41862 25.7361 8.30907 29.5099 8.92423C30.3629 9.05907 31.2073 9.23603 32.0517 9.44671C38.6429 11.1237 42.4512 14.2079 44.6225 16.9636Z" fill="#DE376D"/>
</g>
<path d="M47.9918 9.9692C47.7764 8.39336 42.9256 14.7136 39.3499 15.4467C35.7915 16.1714 29.7603 2.30909 24.5648 0.547852C19.3607 2.30909 13.5449 16.1799 9.99504 15.4467C6.41938 14.7136 0.224442 8.51133 0.000424754 10.0872C-0.214976 11.6377 5.17867 23.1237 5.17867 23.1237C13.1485 24.8596 24.4958 25.4411 24.4958 25.4411C24.4958 25.4411 35.8432 24.8596 43.8216 23.1237C43.8216 23.1237 48.2072 11.5282 47.9918 9.97763V9.9692Z" fill="url(#paint4_linear_1256_15443)"/>
<path d="M5.1875 23.1235L5.48045 30.0674C5.48045 30.0674 12.7438 32.9494 24.4874 32.9494C36.2311 32.9494 44.02 29.8651 44.02 29.8651L43.8391 23.132C43.8391 23.132 25.0475 26.5786 5.19612 23.132L5.1875 23.1235Z" fill="url(#paint5_linear_1256_15443)"/>
<path d="M4.44592 21.531C4.44592 21.531 3.31721 22.0113 3.36891 22.5338C3.42922 23.0563 5.22998 24.4046 5.22998 24.4046C5.22998 24.4046 23.8665 29.1321 43.8385 24.017C43.8385 24.017 45.3118 22.5338 45.4411 21.9439C45.5703 21.3456 44.4933 21.2866 44.4933 21.2866C44.4933 21.2866 36.6096 24.6658 23.9871 24.6658C11.3646 24.6658 4.4373 21.5226 4.4373 21.5226L4.44592 21.531Z" fill="url(#paint6_linear_1256_15443)"/>
<path d="M39.5237 11.9242C41.0229 12.4973 44.8484 10.5001 45.6411 10.6686C46.4337 10.8372 40.4542 14.9158 38.6793 14.8484C36.9044 14.781 35.207 12.4383 35.207 12.4383C35.207 12.4383 36.8958 15.3287 38.7999 15.6742C42.2722 16.3147 47.6228 10.222 47.8812 9.75851C48.1397 9.2866 47.2953 9.32031 45.0983 10.0197C42.7892 10.7529 41.8414 11.9579 39.5323 11.9242H39.5237Z" fill="url(#paint7_linear_1256_15443)"/>
<path d="M7.88501 11.5869C6.23935 12.4464 3.99056 10.8453 3.19788 11.0138C2.39659 11.1824 7.8247 15.1262 9.59961 15.0504C11.3745 14.9829 13.9679 12.5813 13.9679 12.5813C13.9679 12.5813 11.9776 15.3706 10.0735 15.7245C6.60122 16.365 0.397669 10.3397 0.139187 9.86778C-0.119294 9.39587 0.768159 9.32003 2.97387 10.0195C5.28297 10.7526 5.5673 11.806 7.88501 11.5869Z" fill="url(#paint8_linear_1256_15443)"/>
<path d="M16.7852 8.75567C16.7852 8.75567 22.8164 1.44949 25.0738 1.93826C27.3312 2.41859 30.9758 6.75005 30.9758 6.75005C30.9758 6.74163 26.6075 0.143312 24.5999 5.34239e-05C22.5838 -0.134778 16.7852 8.75567 16.7852 8.75567Z" fill="url(#paint9_linear_1256_15443)"/>
<path d="M18.9727 23.5702C14.1391 21.5056 21.6006 12.9438 24.3147 11.8399C27.0374 10.7359 34.9727 20.7809 31.3281 22.6601C26.7789 25.0112 18.9641 23.5702 18.9641 23.5702H18.9727Z" fill="url(#paint10_linear_1256_15443)"/>
<path d="M18.3446 21.6068C17.9569 18.2276 21.6445 13.4748 24.798 13.0618C27.9515 12.6489 32.3543 19.1208 31.8201 21.6068C31.2859 24.0927 18.672 24.413 18.3446 21.6068Z" fill="url(#paint11_linear_1256_15443)"/>
<g style="mix-blend-mode:soft-light">
<path d="M20.7399 21.0339C20.4815 19.7446 23.5574 15.9609 25.0824 15.5985C26.6075 15.2362 29.2784 19.0199 29.2784 20.5704C29.2784 22.121 21.007 22.3822 20.7399 21.0339Z" fill="white"/>
</g>
<path opacity="0.75" d="M18.6113 20.5195C18.9646 21.1431 20.2742 21.0925 20.7309 20.3088C21.1875 19.5336 24.8666 15.6993 25.0044 15.0757C25.1423 14.4521 24.7977 13.0532 24.7977 13.0532C24.7977 13.0532 19.7228 14.3004 18.6113 20.5111V20.5195Z" fill="white"/>
<g style="mix-blend-mode:multiply" opacity="0.8">
<path d="M18.8707 22.4243C18.3279 21.9187 20.9558 21.3288 20.9558 21.3288C20.9558 21.3288 22.7479 22.104 25.0053 21.9861C27.2627 21.8681 28.7102 21.0507 29.0893 20.958C29.4685 20.8653 31.2089 21.8175 31.252 22.1462C31.2951 22.4664 28.6844 23.5956 24.9536 23.5956C21.2229 23.5956 18.8707 22.4243 18.8707 22.4243Z" fill="#B82774"/>
</g>
<path d="M18.3086 23.1911C18.3086 23.1911 21.8412 23.8653 25.0033 23.7642C30.0523 23.6041 32.0512 21.9692 32.0512 21.9692C32.0512 21.9692 31.6118 24.0086 25.0033 24.1181C19.4114 24.2108 18.3086 23.1911 18.3086 23.1911Z" fill="url(#paint12_linear_1256_15443)"/>
<path d="M21.5666 15.042C21.5666 15.042 21.2823 16.6937 22.4799 16.997C23.6775 17.3004 24.6597 15.3875 24.8321 14.7892C25.0044 14.1909 24.7976 13.0532 24.7976 13.0532C24.7976 13.0532 22.4713 13.9381 21.5666 15.042Z" fill="white"/>
<path d="M29.1829 19.9633C29.0967 19.8874 28.4161 21.143 28.5884 21.1515C28.7607 21.1515 29.6912 21.0925 29.8119 21.1515C29.9325 21.202 29.5017 20.2582 29.1915 19.9633H29.1829Z" fill="white"/>
<g style="mix-blend-mode:multiply" opacity="0.7">
<path d="M5.23828 24.413C5.23828 24.413 25.7789 31.6771 43.8468 24.0254C43.8468 24.0254 27.8813 29.0394 5.23828 24.413Z" fill="#DE376D"/>
</g>
<g style="mix-blend-mode:soft-light">
<path d="M28.5535 24.5732C25.6326 25.9721 31.3278 25.7614 35.1964 25.4328C39.065 25.1041 41.4948 22.989 41.5551 22.6266C41.6154 22.2642 28.5535 24.5648 28.5535 24.5648V24.5732Z" fill="white"/>
</g>
<g style="mix-blend-mode:multiply" opacity="0.2">
<path d="M8.40098 24.6574C5.96264 23.8653 7.67724 22.8035 13.5792 24.0085C19.4812 25.2136 12.5453 26.0057 8.40098 24.6574Z" fill="#E02774"/>
</g>
<g style="mix-blend-mode:soft-light" opacity="0.5">
<path d="M15.4661 11.7475C13.493 14.0649 11.003 23.1155 15.3369 22.2643C16.8705 21.961 19.1452 12.4216 24.2545 10.7615C29.3638 9.10142 33.6546 20.1239 35.2055 20.9329C36.7564 21.7419 38.178 18.0003 38.178 17.0228C38.178 16.0452 28.3643 2.24187 24.5991 2.72221C20.8339 3.20254 21.5404 4.61827 15.4661 11.7475Z" fill="white"/>
</g>
<g style="mix-blend-mode:multiply" opacity="0.2">
<path d="M3.37695 13.8706C3.37695 13.5082 8.05547 15.9099 9.48573 17.8818C10.9074 19.8537 11.993 23.0307 12.0533 23.3256C12.1136 23.6206 8.18471 22.9464 7.21109 22.2723C6.22886 21.5981 3.38557 13.8706 3.38557 13.8706H3.37695Z" fill="#E02774"/>
</g>
<g style="mix-blend-mode:multiply" opacity="0.2">
<path d="M7.69485 30.3202C6.38521 29.764 7.29851 26.2752 7.52253 25.8623C7.75516 25.4494 17.8015 26.9747 19.3524 27.337C20.9032 27.6994 21.11 32.0561 20.9636 32.5449C20.8171 33.0252 10.7535 31.6179 7.69485 30.3286V30.3202Z" fill="#E02774"/>
</g>
<g style="mix-blend-mode:soft-light">
<path d="M29.2781 32.7723C27.6411 32.9156 30.4154 27.7751 30.9755 27.5308C31.5355 27.2864 39.1607 25.4662 39.8845 25.6853C40.6082 25.9044 40.9529 30.8341 40.9529 30.8341C40.9529 30.8341 34.4994 32.3257 29.2867 32.7723H29.2781Z" fill="white"/>
</g>
<path d="M25.5033 0.834101C24.3918 0.471741 26.1236 3.25264 27.864 4.25545C29.6045 5.25826 27.2092 1.39871 25.5033 0.834101Z" fill="white"/>
<path d="M40.6767 15.4887C39.3585 15.6235 43.4769 12.5982 44.8383 11.9325C46.1996 11.2667 44.2782 15.1263 40.6767 15.4887Z" fill="white"/>
<path d="M35.8935 23.4609C34.7906 23.8738 37.8838 24.2446 39.1934 23.9244C40.5117 23.6126 40.7185 22.8289 40.9425 22.6182C41.1665 22.4075 35.8849 23.4609 35.8849 23.4609H35.8935Z" fill="white"/>
<g style="mix-blend-mode:soft-light">
<path d="M3.7569 22.2727C3.39503 22.7698 5.5835 23.9749 6.24694 24.0086C6.91038 24.0339 8.02185 23.385 8.22863 23.1406C8.43542 22.8963 4.24802 21.5985 3.7569 22.2727Z" fill="white"/>
</g>
<g style="mix-blend-mode:soft-light">
<path d="M5.8504 24.8847C5.38513 24.6993 5.35067 29.8819 5.97964 29.9578C6.60861 30.0336 7.2462 26.5027 7.33236 25.7864C7.41852 25.0701 5.8504 24.8847 5.8504 24.8847Z" fill="white"/>
</g>
<g style="mix-blend-mode:soft-light">
<path d="M0.888741 12.4045C0.923205 11.3259 5.61033 19.1882 5.97221 20.5113C6.33408 21.8343 4.80043 21.8259 4.44717 21.2865C4.09391 20.7472 0.871509 13.0534 0.888741 12.4045Z" fill="white"/>
</g>
<g style="mix-blend-mode:multiply" opacity="0.3">
<path d="M42.3153 21.6321C40.3164 21.9608 42.4445 15.9776 45.4688 12.9945C48.493 10.0113 44.185 21.0254 44.0127 21.2866C43.8403 21.5478 42.3153 21.6321 42.3153 21.6321Z" fill="#FF6F74"/>
</g>
<g style="mix-blend-mode:multiply" opacity="0.3">
<path d="M40.9531 25.1206C40.3672 25.5588 40.9359 30.0588 41.2547 30.3538C41.5735 30.6487 43.3828 29.806 43.6844 29.4942C43.986 29.1824 43.8912 25.0701 43.6844 24.6234C43.4776 24.1768 40.9531 25.1206 40.9531 25.1206Z" fill="#FF6F74"/>
</g>
<g style="mix-blend-mode:multiply" opacity="0.7">
<path d="M5.35938 27.3877C5.35938 27.3877 8.78856 33.5141 25.5554 32.6377C42.3222 31.7697 43.8731 27.5225 43.8731 27.5225L44.0023 29.8568C44.0023 29.8568 25.6502 36.7838 5.47138 30.059L5.35938 27.3877Z" fill="#DE376D"/>
</g>
<path d="M0.887787 10.0197C0.37944 10.618 3.62769 13.0281 4.14465 13.3904C4.66162 13.7528 5.55768 13.8286 5.71277 13.8286C5.86786 13.8286 1.99926 10.1124 0.887787 10.0112V10.0197Z" fill="white"/>
<path d="M26.202 23.9665C25.9952 23.4524 29.5795 23.4693 29.5795 23.4693C29.5795 23.4693 27.4427 24.3457 26.202 23.9665Z" fill="white"/>
<g style="mix-blend-mode:multiply" opacity="0.8">
<path d="M17.3967 21.4887C17.3967 21.4887 20.5415 13.4999 24.8323 13.2134C29.1231 12.9269 32.268 21.1516 32.268 21.1516C32.2852 18.3623 28.1495 11.5196 25.0822 11.1488C22.0235 10.7696 17.233 18.7583 17.3967 21.4887Z" fill="#D12774"/>
</g>
<g style="mix-blend-mode:multiply" opacity="0.7">
<path d="M4.44605 21.5309C4.44605 21.5309 21.9969 28.0787 44.5021 21.2866L45.6221 18.1602C45.6221 18.1602 38.3933 24.472 24.4697 24.1349C10.5376 23.7978 3.55859 19.5338 3.55859 19.5338L4.44605 21.5225V21.5309Z" fill="#DE376D"/>
</g>
</g>
<defs>
<linearGradient id="paint0_linear_1256_15443" x1="10.382" y1="11.8398" x2="10.382" y2="3.58984" gradientUnits="userSpaceOnUse">
<stop offset="0.05" stop-color="#F33C00"/>
<stop offset="1" stop-color="#FF4F04"/>
</linearGradient>
<linearGradient id="paint1_linear_1256_15443" x1="12.4682" y1="27.3878" x2="12.4682" y2="3.58167" gradientUnits="userSpaceOnUse">
<stop offset="0.05" stop-color="#FF3F00"/>
<stop offset="1" stop-color="#FF7C04"/>
</linearGradient>
<linearGradient id="paint2_linear_1256_15443" x1="35.5495" y1="27.3878" x2="35.5495" y2="3.57315" gradientUnits="userSpaceOnUse">
<stop offset="0.05" stop-color="#FF3F00"/>
<stop offset="1" stop-color="#FF7C04"/>
</linearGradient>
<linearGradient id="paint3_linear_1256_15443" x1="37.7039" y1="11.9242" x2="37.7039" y2="3.58154" gradientUnits="userSpaceOnUse">
<stop offset="0.05" stop-color="#F33C00"/>
<stop offset="1" stop-color="#FF4F04"/>
</linearGradient>
<linearGradient id="paint4_linear_1256_15443" x1="0.000424754" y1="12.9945" x2="48.0004" y2="12.9945" gradientUnits="userSpaceOnUse">
<stop stop-color="#FF9600"/>
<stop offset="1" stop-color="#FFA900"/>
</linearGradient>
<linearGradient id="paint5_linear_1256_15443" x1="5.1875" y1="28.028" x2="44.0114" y2="28.028" gradientUnits="userSpaceOnUse">
<stop stop-color="#FF9600"/>
<stop offset="1" stop-color="#FFA900"/>
</linearGradient>
<linearGradient id="paint6_linear_1256_15443" x1="3.37753" y1="23.84" x2="45.4583" y2="23.84" gradientUnits="userSpaceOnUse">
<stop stop-color="#FF9600"/>
<stop offset="1" stop-color="#FFA900"/>
</linearGradient>
<linearGradient id="paint7_linear_1256_15443" x1="41.5657" y1="15.7248" x2="41.5657" y2="9.44671" gradientUnits="userSpaceOnUse">
<stop stop-color="#FFDE00"/>
<stop offset="1" stop-color="#FFE834"/>
</linearGradient>
<linearGradient id="paint8_linear_1256_15443" x1="7.03202" y1="15.7751" x2="7.03202" y2="9.50542" gradientUnits="userSpaceOnUse">
<stop stop-color="#FFDE00"/>
<stop offset="1" stop-color="#FFE834"/>
</linearGradient>
<linearGradient id="paint9_linear_1256_15443" x1="23.8762" y1="8.75567" x2="23.8762" y2="5.38139e-05" gradientUnits="userSpaceOnUse">
<stop stop-color="#FFDE00"/>
<stop offset="1" stop-color="#FFE834"/>
</linearGradient>
<linearGradient id="paint10_linear_1256_15443" x1="24.8316" y1="24.0084" x2="24.8316" y2="11.7472" gradientUnits="userSpaceOnUse">
<stop offset="0.05" stop-color="#FF4B00"/>
<stop offset="1" stop-color="#FF7204"/>
</linearGradient>
<linearGradient id="paint11_linear_1256_15443" x1="25.091" y1="23.5956" x2="25.091" y2="13.0366" gradientUnits="userSpaceOnUse">
<stop stop-color="#DE0086"/>
<stop offset="1" stop-color="#FF003B"/>
</linearGradient>
<linearGradient id="paint12_linear_1256_15443" x1="18.3086" y1="23.0479" x2="32.0512" y2="23.0479" gradientUnits="userSpaceOnUse">
<stop stop-color="#FFDE00"/>
<stop offset="1" stop-color="#FFE834"/>
</linearGradient>
<clipPath id="clip0_1256_15443">
<rect width="48" height="33" fill="white"/>
</clipPath>
</defs>
</svg>
