<svg width="49" height="42" viewBox="0 0 49 42" fill="none" xmlns="http://www.w3.org/2000/svg">
<g clip-path="url(#clip0_1145_15371)">
<path d="M43.2148 11.2899C46.0067 11.9106 45.0235 22.3621 44.3256 23.0759C43.6276 23.7975 47.9655 23.7975 47.9655 23.7975C47.9655 23.7975 47.3651 10.8553 46.517 9.99408C45.669 9.13282 43.2148 11.2899 43.2148 11.2899Z" fill="url(#paint0_linear_1145_15371)"/>
<path d="M38.6287 5.22183C38.6287 5.22183 38.6287 5.2839 38.6137 5.39253C38.5837 5.92015 38.4711 7.62715 38.2234 10.2342L38.2084 10.3894C38.0808 11.7317 37.9232 13.3146 37.7206 15.0836C37.578 16.3717 37.4129 17.7528 37.2253 19.227C37.1277 19.9796 36.9776 20.6779 36.775 21.3452C36.1971 23.2695 35.2289 24.8291 34.1107 26.1326C33.7955 26.4973 33.4728 26.8387 33.1425 27.1646L33.135 27.1723C31.2888 28.9802 29.24 30.2372 27.8966 31.2769C27.8816 31.2924 27.8666 31.3002 27.8515 31.3157C27.7089 31.4321 27.5739 31.5407 27.4463 31.6493C27.3862 31.6959 27.3487 31.7269 27.3337 31.7424C27.2286 31.8355 27.1311 31.9286 27.041 32.0218C26.8459 32.2235 26.6958 32.4175 26.5907 32.6037C25.2623 34.9469 25.8402 35.7616 27.8365 37.0729C28.1067 37.2514 28.3619 37.4143 28.6095 37.5695C28.6321 37.5928 28.6546 37.6005 28.6771 37.6161C30.2231 38.617 31.2438 39.4007 31.2438 41.4801C31.2438 41.4801 27.1686 41.9689 24.4218 41.9689C21.6749 41.9689 17.5997 41.4801 17.5997 41.4801C17.5997 39.7265 18.3277 38.8886 19.4835 38.0738C19.521 38.0428 19.5585 38.0118 19.5961 37.9963C20.0163 37.7014 20.4967 37.4143 21.007 37.0652C23.0033 35.7539 23.5812 34.9392 22.2528 32.5959C22.2303 32.5649 22.2153 32.5339 22.1928 32.5028C21.3447 31.1838 18.3728 29.7561 15.776 27.2344C14.2 25.7058 12.7665 23.7738 12.0235 21.2211C11.8359 20.5926 11.6933 19.9176 11.6033 19.2037C11.4231 17.8226 11.2655 16.4415 11.1305 15.0914C10.9503 13.3611 10.8077 11.7007 10.6877 10.1799C10.6576 9.75314 10.6276 9.34191 10.5976 8.93843C10.3574 5.67185 10.2524 3.25877 10.2223 2.59149C10.2223 2.47511 10.2148 2.40527 10.2148 2.40527L10.6651 2.52942L24.4218 6.28482L38.6287 5.19079V5.22183Z" fill="url(#paint1_radial_1145_15371)"/>
<path d="M38.6158 5.40053C38.5108 5.5945 38.2931 5.77296 37.9479 5.92814C31.4786 8.93867 13.8644 5.56347 10.6298 3.034C10.4497 2.88658 10.3071 2.75467 10.2245 2.61501C9.99185 2.26585 10.1044 1.93997 10.6298 1.66064C11.9131 0.985597 13.4967 0.543329 15.2453 0.287279C24.9718 -1.15591 39.8992 3.08831 38.6083 5.39277L38.6158 5.40053Z" fill="url(#paint2_linear_1145_15371)"/>
<path d="M14.171 2.78564C15.0415 4.40729 32.3105 8.27132 35.6877 4.77196C37.7441 2.63045 11.8819 -1.45859 14.171 2.78564Z" fill="url(#paint3_radial_1145_15371)"/>
<path d="M48.8655 23.4873C48.2201 28.6316 37.4955 24.496 37.3454 24.6822C37.1953 24.8684 36.7525 26.9323 35.9494 28.2203C35.9494 28.2203 33.9456 28.1738 33.1426 27.1806C33.1426 27.1806 33.1426 27.1806 33.1501 27.1728C33.2026 27.0953 33.5403 26.6297 34.0057 25.9547C34.8537 24.721 36.1145 22.789 36.7825 21.3535C36.8125 21.307 36.8275 21.2527 36.85 21.2061C36.85 21.2061 44.0023 24.1701 46.2087 22.6648C48.4152 21.1595 46.2463 11.5072 45.5708 10.9719C44.9029 10.4442 40.4449 12.3142 40.4449 12.3142C40.4449 12.3142 40.7151 13.7962 40.3023 15.0221C40.3023 15.0221 38.8614 15.4411 37.7206 15.0842L38.2084 10.3899L38.2234 10.2347C38.2234 10.2347 44.7453 7.89149 46.2463 8.2872C46.6891 8.40359 47.1694 9.35796 47.5897 10.7546C48.5878 14.0522 49.3158 19.8715 48.8655 23.4795V23.4873Z" fill="url(#paint4_radial_1145_15371)"/>
<path d="M38.3447 8.97749C38.3447 8.97749 44.7314 7.95329 46.0973 8.24814C46.0973 8.24814 43.8158 8.24814 38.2246 10.2422L38.3372 8.97749H38.3447Z" fill="url(#paint5_linear_1145_15371)"/>
<path d="M36.8516 21.1982C36.8516 21.1982 43.1482 24.0536 46.7056 22.0595C46.7056 22.0595 46.5255 24.9536 36.8516 21.1982Z" fill="url(#paint6_linear_1145_15371)"/>
<path d="M5.78776 11.2899C2.99591 11.9106 3.97906 22.3621 4.67702 23.0759C5.37499 23.7898 1.03711 23.7975 1.03711 23.7975C1.03711 23.7975 1.63751 10.8553 2.48557 9.99408C3.33363 9.13282 5.78776 11.2899 5.78776 11.2899Z" fill="url(#paint7_linear_1145_15371)"/>
<path d="M15.8594 27.1803C15.8594 27.1803 15.8144 27.2424 15.7844 27.2579C14.9363 28.1735 13.0525 28.2201 13.0525 28.2201C12.7223 27.6924 12.4597 27.0407 12.2495 26.4277C11.9418 25.5509 11.7467 24.7905 11.6641 24.6819C11.514 24.4957 0.796921 28.6235 0.143988 23.487C-0.0361317 22.0283 -0.0286267 20.2127 0.113968 18.3427C0.474207 13.6174 1.68251 8.58179 2.75572 8.2947C2.83827 8.27143 2.92833 8.26367 3.0259 8.25591H3.04091C3.43117 8.23263 3.98654 8.30246 4.61695 8.42661C5.57009 8.61283 6.71084 8.93095 7.75403 9.24907C7.80657 9.26459 7.88912 9.28787 8.0017 9.32666C8.06924 9.34994 8.13679 9.36546 8.21184 9.38874C8.37695 9.43529 8.56457 9.49736 8.78222 9.5672C8.82725 9.58271 8.87228 9.59823 8.91731 9.61375C9.00737 9.64479 9.09743 9.67582 9.17998 9.6991C9.26254 9.73014 9.34509 9.76117 9.42765 9.78445C9.46517 9.79221 9.5102 9.80773 9.54772 9.82325C9.63028 9.84652 9.70533 9.8698 9.77287 9.90084C10.0581 9.99395 10.3733 10.1026 10.696 10.219C10.7185 10.2267 10.7485 10.2422 10.7785 10.25L11.2814 15.0994C11.2363 15.115 11.1913 15.1227 11.1463 15.1305C10.0355 15.4176 8.69966 15.0296 8.69966 15.0296C8.28689 13.8037 8.55707 12.3217 8.55707 12.3217C8.55707 12.3217 4.10662 10.444 3.43117 10.9794C2.75572 11.5147 0.586781 21.167 2.79324 22.6723C4.8346 24.0612 11.0938 21.6326 12.0319 21.2602C12.1144 21.2291 12.152 21.2136 12.152 21.2136C13.1726 23.5025 15.8594 27.1959 15.8594 27.1959V27.1803Z" fill="url(#paint8_radial_1145_15371)"/>
<path d="M10.779 10.2344C10.779 10.2344 10.7264 10.2112 10.6964 10.2034C10.3737 10.087 10.0585 9.97838 9.77331 9.88527C9.69826 9.85423 9.62321 9.83096 9.54816 9.80768C9.51063 9.79216 9.4656 9.77664 9.42808 9.76888C9.33802 9.73785 9.25546 9.70681 9.18041 9.68353C9.09035 9.6525 9.00029 9.62146 8.91774 9.59818C8.87271 9.5749 8.82017 9.56715 8.78265 9.55163C8.565 9.4818 8.36987 9.41972 8.21227 9.37317C8.14472 9.34989 8.07718 9.32661 8.00213 9.3111C7.89706 9.28006 7.81451 9.24902 7.75447 9.2335C6.32102 8.81451 5.23279 8.56622 4.45228 8.42656C3.71679 8.29465 3.25148 8.25586 3.04134 8.24034H3.02633C2.95128 8.24034 2.90625 8.24034 2.90625 8.24034C3.62673 8.08516 5.74313 8.29465 7.58185 8.53519C7.61187 8.53519 7.64189 8.53519 7.67191 8.54294C9.06784 8.7214 10.2836 8.90762 10.5913 8.95418H10.6064C10.6064 8.95418 10.6214 8.95418 10.6289 8.95418C10.6514 8.95418 10.6664 8.95418 10.6664 8.95418L10.779 10.2112V10.2344Z" fill="url(#paint9_linear_1145_15371)"/>
<path d="M12.1529 21.1982C12.1529 21.1982 5.85619 24.0536 2.29883 22.0595C2.29883 22.0595 2.47895 24.9536 12.1529 21.1982Z" fill="url(#paint10_linear_1145_15371)"/>
<g style="mix-blend-mode:soft-light">
<path d="M23.1932 6.57989C22.5253 6.09882 29.4974 6.84369 33.1373 6.06003C36.7772 5.27636 35.8091 4.36854 36.6796 4.08921C37.5502 3.80989 38.1656 4.9272 38.2257 5.33067C38.2857 5.73414 34.4807 8.15498 23.1932 6.57213V6.57989Z" fill="white"/>
</g>
<g style="mix-blend-mode:soft-light">
<path d="M14.7703 25.1086C14.275 25.5276 20.4516 31.0365 22.7932 32.3556C25.1347 33.6746 31.7391 28.6622 34.0356 25.4422C36.3321 22.2222 37.0376 18.5754 36.8425 17.8771C36.6548 17.171 35.3039 25.2172 28.8722 29.1588C22.4404 33.1005 15.3857 23.6887 14.7628 25.1086H14.7703Z" fill="white"/>
</g>
<g style="mix-blend-mode:multiply" opacity="0.2">
<path d="M12.1506 16.3719C11.7603 17.4116 15.8355 29.2908 24.3987 29.8184C32.9619 30.346 37.7125 12.7794 37.8101 8.61279C37.8701 6.15316 34.1477 6.61094 31.4909 8.31018C29.0443 9.87752 26.2975 14.8433 23.1379 17.8306C15.4303 25.1164 12.5634 15.2391 12.1431 16.3719H12.1506Z" fill="#D42F55"/>
</g>
<g style="mix-blend-mode:soft-light" opacity="0.5">
<path d="M14.7412 5.57906C11.2289 5.87391 14.0732 16.6591 17.7357 19.0101C21.3981 21.3611 27.3045 11.5613 29.0682 9.59828C30.8244 7.63522 16.7976 5.40836 14.7412 5.57906Z" fill="white"/>
</g>
<path d="M18.7099 13.1286C18.0945 12.7794 18.935 9.67578 19.9032 9.48181C20.8788 9.29559 21.3967 14.6494 18.7099 13.1286Z" fill="white"/>
<g style="mix-blend-mode:multiply" opacity="0.5">
<path d="M19.4844 38.0898C19.5219 38.0665 19.5594 38.0355 19.597 38.0122L19.4844 38.0898Z" fill="#D42F55"/>
</g>
<g style="mix-blend-mode:multiply" opacity="0.5">
<path d="M24.8061 38.9354C20.3181 38.6483 20.6333 37.3448 19.5977 38.0199C20.0179 37.725 20.4983 37.4379 21.0086 37.0888C23.0049 35.7775 23.5828 34.9628 22.2544 32.6195C22.2319 32.5885 22.2169 32.5575 22.1944 32.5264C22.5996 32.6971 22.9824 32.8601 23.2676 32.9532C24.2808 33.2868 27.0351 32.0376 27.0351 32.0376C26.84 32.2393 26.6899 32.4333 26.5848 32.6195C25.2564 34.9628 25.8343 35.7775 27.8306 37.0888C28.1008 37.2672 28.356 37.4302 28.6036 37.5854C28.6261 37.6086 28.6487 37.6164 28.6712 37.6319C29.5042 38.175 29.2941 39.2225 24.8061 38.9354Z" fill="#D42F55"/>
</g>
<g style="mix-blend-mode:multiply" opacity="0.2">
<path d="M25.3975 41.9768C24.4969 41.6354 25.0748 39.587 25.9679 39.2766C26.861 38.9663 28.8873 39.1447 29.2551 39.2766C29.6228 39.4085 29.7579 41.1931 29.5778 41.4414C29.3977 41.6897 25.39 41.969 25.39 41.969L25.3975 41.9768Z" fill="#DA0553"/>
</g>
<g style="mix-blend-mode:soft-light">
<path d="M18.3652 41.3795C17.7723 41.2243 18.5678 39.2457 18.9356 38.9819C19.3033 38.7181 23.9939 39.3854 24.6168 39.5406C25.2397 39.688 24.8195 41.7442 24.7444 41.8683C24.6694 41.9925 19.3333 41.6355 18.3652 41.3873V41.3795Z" fill="white"/>
</g>
<path d="M19.8815 39.2068C19.206 39.1602 19.236 41.0069 19.3336 41.3561C19.4312 41.7052 20.9772 41.6975 21.1273 41.713C21.2774 41.7285 21.5701 39.4939 21.45 39.2844C21.3299 39.0749 19.8815 39.2145 19.8815 39.2145V39.2068Z" fill="white"/>
<g style="mix-blend-mode:soft-light">
<path d="M29.6615 38.9199C29.2562 38.9354 29.5189 40.9761 29.6615 41.2244C29.8041 41.4727 30.7197 41.1313 30.9823 41.2244C31.245 41.3175 30.9373 39.0984 29.6615 38.9199Z" fill="white"/>
</g>
<g style="mix-blend-mode:multiply" opacity="0.3">
<path d="M14.029 2.61529C14.1191 3.04204 19.4326 4.86542 21.2038 5.19907C22.9749 5.53271 23.6204 2.85582 24.596 2.43683C27.4254 1.23417 27.9582 8.15528 30.8026 3.11963C31.2154 2.38251 25.1439 1.07122 20.0105 0.931561C14.8771 0.799656 13.9089 2.04887 14.029 2.61529Z" fill="#D42F55"/>
</g>
<g style="mix-blend-mode:multiply" opacity="0.8">
<path d="M22.4557 32.9763C22.4557 32.9763 23.2963 34.7066 23.9717 35.8937C24.6472 37.0809 26.0206 32.9996 26.4184 32.5651C26.8161 32.1306 25.0975 32.8832 24.1744 32.8211C23.2513 32.7591 22.043 32.3013 22.043 32.3013L22.4557 32.9763Z" fill="#D42F55"/>
</g>
<g style="mix-blend-mode:soft-light" opacity="0.5">
<path d="M31.4481 2.92509C30.9753 2.80095 29.7745 5.47008 29.8795 5.93562C29.9846 6.40117 32.116 6.32358 32.919 4.77952C33.7296 3.2277 31.4481 2.93285 31.4481 2.93285V2.92509Z" fill="white"/>
</g>
<path d="M31.4459 2.92536C31.0857 3.42195 31.4609 4.11251 31.8662 4.55477C32.279 4.99704 33.2696 3.49178 33.2321 3.18917C33.1946 2.88657 31.7836 2.45982 31.4459 2.93312V2.92536Z" fill="white"/>
<path d="M11.3555 3.49951C11.3555 3.49951 22.2677 7.23164 30.981 7.09973C30.981 7.09973 22.5454 8.34119 11.3555 3.49951Z" fill="#FFE016"/>
<path d="M19.087 6.0291C18.404 5.46268 21.391 6.10669 22.179 6.24635C22.9596 6.38601 23.3348 6.7119 23.3348 6.7119C23.3348 6.7119 21.2935 6.75845 19.0945 6.0291H19.087Z" fill="white"/>
<g style="mix-blend-mode:multiply" opacity="0.8">
<path d="M43.2145 11.2895C44.3853 11.4447 44.8881 13.3922 44.9782 14.238C45.0683 15.0837 46.6668 14.0129 46.224 12.6629C45.7812 11.3128 45.6837 10.9326 45.4285 10.9015C45.1733 10.8705 43.207 11.2895 43.207 11.2895H43.2145Z" fill="#D42F55"/>
</g>
<g style="mix-blend-mode:multiply" opacity="0.8">
<path d="M5.7877 11.2894C5.7877 11.2894 3.77637 10.917 3.41613 11.1498C3.04839 11.3826 2.50803 14.1836 2.6206 15.2776C2.73318 16.3717 3.98651 13.5163 4.52687 12.4611C5.06723 11.4058 5.7877 11.2817 5.7877 11.2817V11.2894Z" fill="#D42F55"/>
</g>
<g style="mix-blend-mode:multiply" opacity="0.5">
<path d="M38.4191 24.6973C37.3384 23.9447 37.421 22.2997 37.8187 22.0204C38.2165 21.7411 42.7945 23.7119 45.2261 23.3627C47.6578 23.0136 47.0574 18.8702 47.5452 17.4193C48.033 15.9606 49.6391 22.6411 48.1081 24.7051C46.577 26.7767 38.4266 24.7051 38.4266 24.7051L38.4191 24.6973Z" fill="#D42F55"/>
</g>
<g style="mix-blend-mode:multiply" opacity="0.5">
<path d="M0.602044 24.744C-0.336078 23.4637 0.32436 20.9963 0.879728 20.6317C1.4351 20.2747 1.69777 23.3706 3.90423 23.4249C6.1107 23.4715 11.3867 21.8343 11.9421 21.8731C12.4974 21.9119 12.0471 23.5103 8.91005 24.744C5.78048 25.9777 1.63023 26.1561 0.594539 24.744H0.602044Z" fill="#D42F55"/>
</g>
<g style="mix-blend-mode:multiply" opacity="0.8">
<path d="M13.0527 28.2199C13.0527 28.2199 14.0584 27.5681 15.8596 27.1802C15.8596 27.1802 14.8314 28.2664 13.0527 28.2199Z" fill="#D42F55"/>
</g>
<g style="mix-blend-mode:multiply" opacity="0.8">
<path d="M35.9494 28.2199C35.9494 28.2199 35.1914 26.8698 33.1426 27.1801C33.1426 27.1801 34.3509 28.2199 35.9494 28.2199Z" fill="#D42F55"/>
</g>
<g style="mix-blend-mode:soft-light" opacity="0.5">
<path d="M12.6765 22.9517C11.9785 22.6569 12.0761 23.9526 12.1286 24.5501C12.1811 25.1475 12.9316 27.3278 13.1418 27.5373C13.3519 27.7468 13.8022 27.5606 14.5452 27.4054C15.2957 27.2503 15.0856 27.0252 15.0705 26.5287C15.048 26.0321 13.1268 23.1457 12.6765 22.9595V22.9517Z" fill="white"/>
</g>
<g style="mix-blend-mode:soft-light" opacity="0.5">
<path d="M4.95601 8.31006C4.51322 8.44972 7.13996 9.03941 8.30323 9.21787C9.459 9.39633 9.78171 9.44289 9.93181 9.21787C10.0819 8.99286 7.15497 8.33334 4.95601 8.31006Z" fill="white"/>
</g>
<path d="M5.38122 8.68256C4.7433 8.42651 7.35503 8.51186 7.66273 8.83774C7.97044 9.16363 6.91224 9.17914 5.38122 8.68256Z" fill="white"/>
<path d="M42.7652 8.38008C41.0541 8.57405 43.6358 8.66716 44.4614 8.45767C45.2944 8.24817 43.4782 8.30249 42.7652 8.38008Z" fill="white"/>
<g style="mix-blend-mode:multiply" opacity="0.8">
<path d="M38.2313 10.2346C38.9668 9.97856 43.0646 8.91556 43.695 9.21041C44.3179 9.50525 41.3759 11.608 40.678 11.9494C39.98 12.2908 40.5504 14.0831 39.8824 14.7349C39.2145 15.3866 37.7285 15.0763 37.7285 15.0763L38.2313 10.2268V10.2346Z" fill="#D42F55"/>
</g>
<g style="mix-blend-mode:multiply" opacity="0.3">
<path d="M7.22772 9.3655C6.37966 9.91639 10.4323 14.5098 10.7776 14.665C11.1228 14.8201 10.8376 10.8009 10.8076 10.5216C10.7776 10.2423 7.52792 9.17928 7.22772 9.3655Z" fill="#D42F55"/>
</g>
<g style="mix-blend-mode:multiply" opacity="0.5">
<path d="M33.459 26.8545C33.459 26.9011 35.3127 27.2968 35.6129 27.5373C35.9131 27.7778 37.1589 24.1543 37.309 22.9129C37.4591 21.6714 37.0539 21.1438 36.7537 21.4076C36.461 21.6714 34.4496 25.5898 33.459 26.8545Z" fill="#D42F55"/>
</g>
<path d="M30.5234 7.10736C30.7786 6.36249 33.0901 6.78148 33.2327 7.00649C33.3828 7.23151 32.3772 8.41865 31.7017 8.53504C31.0188 8.65142 30.5234 7.10736 30.5234 7.10736Z" fill="#D13C00"/>
<path d="M32.8124 11.2585C32.6473 10.8783 32.9024 9.76098 33.3377 9.51269C33.773 9.26439 33.8405 10.8085 33.6604 11.2585C33.4803 11.7085 32.9174 11.5145 32.8124 11.2585Z" fill="#D12D00"/>
<g style="mix-blend-mode:multiply" opacity="0.5">
<path d="M33.2639 9.62117C32.9937 9.76859 33.0162 10.3816 33.1813 10.6764C33.3464 10.9712 33.6917 10.4048 33.6391 10.0014C33.5866 9.59789 33.6016 9.44271 33.2639 9.62117Z" fill="#D42F55"/>
</g>
<path d="M32.8063 10.5524C32.8063 10.5524 32.7237 11.0413 32.9939 11.2973C33.2641 11.5534 33.6243 11.1033 33.6919 10.8007C33.7594 10.4981 33.7444 10.2266 33.7444 10.2266C33.7444 10.2266 33.8269 11.1421 33.6393 11.4059C33.4517 11.6698 32.8363 11.5456 32.7687 11.2663C32.7012 10.987 32.8063 10.5524 32.8063 10.5524Z" fill="#FF9500"/>
<path d="M33.3164 11.5534C33.2113 11.4836 33.459 11.2741 33.5791 11.0646C33.7066 10.8474 33.6991 11.2974 33.6166 11.4371C33.534 11.5767 33.3089 11.5612 33.3089 11.5612L33.3164 11.5534Z" fill="white"/>
<path d="M14.6963 23.293C14.3135 23.099 13.8557 21.8342 14.1034 21.1825C14.3436 20.5307 15.3642 21.8808 15.4693 22.4705C15.5744 23.0602 14.944 23.4249 14.6963 23.293Z" fill="#D12D00"/>
<g style="mix-blend-mode:multiply" opacity="0.5">
<path d="M14.0961 21.3609C13.9385 21.7566 14.3363 22.292 14.6665 22.4084C14.9967 22.5248 14.9667 21.6635 14.6665 21.3454C14.3738 21.0273 14.2913 20.8721 14.0961 21.3609Z" fill="#D42F55"/>
</g>
<path d="M14.2539 22.6568C14.2539 22.6568 14.4791 23.1844 14.8843 23.1533C15.2896 23.1301 15.3421 22.3619 15.2145 22.0283C15.0945 21.6869 14.9143 21.4541 14.9143 21.4541C14.9143 21.4541 15.5523 22.2145 15.5448 22.6335C15.5298 23.0525 14.8993 23.5413 14.6592 23.3551C14.419 23.1689 14.2539 22.6645 14.2539 22.6645V22.6568Z" fill="#FF9500"/>
<path d="M15.3346 23.0759C15.1921 23.1147 15.2896 22.6879 15.2746 22.3698C15.2596 22.0517 15.5223 22.4707 15.5373 22.6724C15.5523 22.8742 15.3346 23.0759 15.3346 23.0759Z" fill="white"/>
<g style="mix-blend-mode:multiply" opacity="0.5">
<path d="M30.8239 6.82062C30.4637 6.96028 31.2292 7.67412 31.687 7.76723C32.1448 7.86034 32.7377 7.02236 32.6702 6.89821C32.6026 6.77406 31.612 6.5025 30.8239 6.81286V6.82062Z" fill="#D42F55"/>
</g>
<path d="M30.5251 7.10742C30.5251 7.10742 31.148 8.41095 31.7709 8.34888C32.3938 8.28681 33.1368 7.34795 33.1368 7.34795C33.1368 7.34795 32.4839 8.61269 31.6959 8.68252C30.9078 8.75235 30.5176 7.11518 30.5176 7.11518L30.5251 7.10742Z" fill="#FFBA00"/>
<path d="M31.9349 8.6282C31.5447 8.67476 32.2426 8.1549 32.4453 8.03851C32.6479 7.91437 32.5653 8.37215 31.9349 8.6282Z" fill="white"/>
<g style="mix-blend-mode:soft-light">
<path d="M30.7267 28.8716C29.2257 29.469 32.7605 26.6137 34.3141 23.4402C35.8676 20.2667 35.0645 23.7971 35.0645 23.7971C35.0645 23.7971 33.496 26.8309 30.7267 28.8716Z" fill="white"/>
</g>
<g style="mix-blend-mode:soft-light">
<path d="M1.98189 17.8307C1.86931 19.173 2.22955 20.1351 2.6048 20.6007C2.97255 21.0662 3.87314 20.6162 3.92568 20.6317C3.97821 20.6472 3.88815 16.5815 3.92568 15.5185C3.9632 14.4632 2.20704 15.1072 1.98189 17.8229V17.8307Z" fill="white"/>
</g>
<g style="mix-blend-mode:soft-light">
<path d="M45.2195 14.8667C44.9644 14.9598 45.2345 18.4359 45.2195 19.0488C45.2045 19.6618 46.8556 19.1885 47.0132 19.0488C47.1708 18.9092 46.7505 14.3701 46.4729 14.1839C46.1952 13.9977 45.2195 14.8667 45.2195 14.8667Z" fill="white"/>
</g>
<g style="mix-blend-mode:multiply" opacity="0.8">
<path d="M7.58073 8.54305C6.59008 8.44218 5.51687 8.37235 4.61627 8.42666C4.56373 8.42666 4.50369 8.42666 4.45116 8.43442C3.81324 8.48098 3.28038 8.58961 2.95016 8.7991C1.35911 9.78451 0.135796 18.3738 0.135796 18.3738L0.113281 18.3428C0.47352 13.6175 1.68182 8.58185 2.75503 8.29476C2.83759 8.27148 2.92765 8.26372 3.02521 8.25596C2.95016 8.25596 2.90513 8.25596 2.90513 8.25596C3.62561 8.10078 5.74201 8.31028 7.58073 8.55081V8.54305Z" fill="#D42F55"/>
</g>
<g style="mix-blend-mode:multiply" opacity="0.8">
<path d="M15.2512 0.294922C15.0861 0.341476 11.1159 1.45103 10.7782 2.05624C10.7332 2.13383 10.6957 2.31229 10.6732 2.56058C10.6581 2.70024 10.6431 2.85542 10.6356 3.03388C10.5231 4.97366 10.6657 8.97735 10.6657 8.97735C10.6657 8.97735 10.6506 8.97735 10.6281 8.97735C10.6281 8.97735 10.6131 8.97735 10.6056 8.97735C10.3655 5.71077 10.2604 3.29769 10.2304 2.63041C9.99771 2.28125 10.1103 1.95537 10.6356 1.67604C11.919 1.001 13.5025 0.558731 15.2512 0.302681V0.294922Z" fill="#D42F55"/>
</g>
<g style="mix-blend-mode:multiply" opacity="0.8">
<path d="M48.8677 23.4872C48.2222 28.6315 37.4976 24.4959 37.3475 24.6821C37.1974 24.8683 36.7546 26.9322 35.9516 28.2202C35.9516 28.2202 33.9478 28.1737 33.1447 27.1805C31.2985 28.9884 29.2496 30.2454 27.9062 31.2851C29.1521 30.2454 32.049 27.8168 32.5443 27.2581C33.1898 26.5365 33.8877 25.7451 33.8877 25.7451C33.8877 25.7451 33.9252 25.8304 34.0003 25.9546C34.0378 26.0089 34.0678 26.071 34.1129 26.1408C34.3455 26.5132 34.7508 27.0564 35.2761 27.39C36.1317 27.9176 37.2199 24.4493 37.2199 24.4493C37.2199 24.4493 45.618 26.5598 47.3516 25.2485C49.0928 23.9372 48.6425 16.5118 48.2748 14.5487C47.8995 12.5856 47.5843 10.77 47.5843 10.77C48.5825 14.0676 49.3104 19.8947 48.8601 23.4949L48.8677 23.4872Z" fill="#D42F55"/>
</g>
<g style="mix-blend-mode:soft-light">
<path d="M13.3386 23.3939C14.3293 25.0776 14.6295 24.9767 14.7421 24.744C14.8546 24.5112 12.4005 20.7713 11.5675 15.2856C10.7344 9.79994 10.8545 4.75653 10.5843 4.62462C10.3141 4.49272 10.9671 16.3952 11.5599 18.8005C12.1528 21.2058 13.3386 23.3939 13.3386 23.3939Z" fill="white"/>
</g>
<path d="M12.371 19.9177C12.2434 20.4298 11.523 18.2262 11.508 17.1632C11.493 16.1002 12.6187 18.9322 12.371 19.9177Z" fill="white"/>
<g style="mix-blend-mode:multiply" opacity="0.5">
<path d="M1.57016 19.8481C1.46509 20.9887 0.0916781 18.886 0.279303 16.6048C0.466927 14.3314 1.43507 10.7932 1.96042 10.3898C2.48577 9.98629 2.81598 11.7011 2.59834 13.346C2.3807 14.9909 1.69774 18.467 1.57016 19.8481Z" fill="#D42F55"/>
</g>
<g style="mix-blend-mode:soft-light" opacity="0.5">
<path d="M45.8942 25.5354C44.956 24.5965 47.6503 22.1447 48.1006 21.7334C48.5509 21.3222 47.6804 24.744 47.3501 25.2483C47.0199 25.7526 45.8942 25.5431 45.8942 25.5431V25.5354Z" fill="white"/>
</g>
<g style="mix-blend-mode:multiply" opacity="0.8">
<path d="M17.5996 41.4961C17.5996 41.4961 26.1478 42.1479 31.2362 41.4961C31.2362 41.4961 24.5867 42.6134 17.5996 41.4961Z" fill="#D42F55"/>
</g>
<g style="mix-blend-mode:soft-light">
<path d="M22.0445 38.524C20.9788 37.9032 24.296 36.654 26.0671 36.7471C27.8383 36.8402 29.1517 38.361 28.8515 38.524C28.5513 38.6869 24.2059 39.1757 22.0445 38.524Z" fill="white"/>
</g>
<g style="mix-blend-mode:multiply" opacity="0.8">
<path d="M15.7848 27.258C14.9368 28.1735 13.053 28.2201 13.053 28.2201C12.7228 27.6925 12.4601 27.0407 12.25 26.4277C12.31 26.482 12.9029 27.0097 13.2932 27.1804C13.706 27.3511 15.7924 27.258 15.7924 27.258H15.7848Z" fill="#D42F55"/>
</g>
<g style="mix-blend-mode:multiply" opacity="0.8">
<path d="M11.6554 24.6821C11.2877 24.3019 12.0907 23.301 11.9556 23.076C11.8205 22.851 10.8298 24.1622 9.51648 24.7675C8.20311 25.3727 6.58203 25.877 6.58203 25.877C6.58203 25.877 9.03616 25.4658 11.6554 24.6899V24.6821Z" fill="#D42F55"/>
</g>
<g style="mix-blend-mode:multiply" opacity="0.3">
<path d="M36.8499 6.71973C34.058 7.15424 34.8986 11.9183 34.2156 17.2023C33.5327 22.4862 36.1069 16.791 36.8799 13.4934C37.6529 10.1958 37.9756 7.18527 37.5404 6.93698C37.1051 6.68869 36.8499 6.72749 36.8499 6.72749V6.71973Z" fill="#D42F55"/>
</g>
<g style="mix-blend-mode:multiply" opacity="0.3">
<path d="M20.3844 28.2199C19.8366 27.7466 24.0619 28.7475 26.471 28.957C28.8801 29.1588 24.2795 31.0442 20.3844 28.2199Z" fill="#D42F55"/>
</g>
<path d="M33.7207 25.1942C33.4655 24.5347 34.4637 22.9829 34.9815 22.9053C35.4919 22.8354 34.854 25.2796 33.7207 25.1942Z" fill="white"/>
</g>
<defs>
<linearGradient id="paint0_linear_1145_15371" x1="45.5939" y1="23.7975" x2="45.5939" y2="9.79234" gradientUnits="userSpaceOnUse">
<stop offset="0.66" stop-color="#FA9300"/>
<stop offset="0.85" stop-color="#F66A00"/>
<stop offset="1" stop-color="#F63F00"/>
</linearGradient>
<radialGradient id="paint1_radial_1145_15371" cx="0" cy="0" r="1" gradientUnits="userSpaceOnUse" gradientTransform="translate(19.536 8.38707) scale(20.8263 26.2684)">
<stop stop-color="#FAC500"/>
<stop offset="0.85" stop-color="#FF9000"/>
<stop offset="1" stop-color="#F63F00"/>
</radialGradient>
<linearGradient id="paint2_linear_1145_15371" x1="26.6979" y1="10.1879" x2="21.8676" y2="-2.64308" gradientUnits="userSpaceOnUse">
<stop stop-color="#FFEA34"/>
<stop offset="0.7" stop-color="#FFA400"/>
<stop offset="1" stop-color="#FFBA00"/>
</linearGradient>
<radialGradient id="paint3_radial_1145_15371" cx="0" cy="0" r="1" gradientUnits="userSpaceOnUse" gradientTransform="translate(29.1509 4.95105) scale(7.8427 9.89208)">
<stop stop-color="#FA9300"/>
<stop offset="0.45" stop-color="#F66A00"/>
<stop offset="1" stop-color="#F63F00"/>
</radialGradient>
<radialGradient id="paint4_radial_1145_15371" cx="0" cy="0" r="1" gradientUnits="userSpaceOnUse" gradientTransform="translate(38.3435 11.2748) scale(10.9047 13.7542)">
<stop stop-color="#FAA800"/>
<stop offset="0.85" stop-color="#FF7F00"/>
<stop offset="1" stop-color="#F63F00"/>
</radialGradient>
<linearGradient id="paint5_linear_1145_15371" x1="42.3148" y1="9.66805" x2="41.5907" y2="7.75159" gradientUnits="userSpaceOnUse">
<stop stop-color="#FFEA34"/>
<stop offset="0.7" stop-color="#FFA400"/>
<stop offset="1" stop-color="#FFBA00"/>
</linearGradient>
<linearGradient id="paint6_linear_1145_15371" x1="42.6529" y1="24.1157" x2="40.9738" y2="19.6513" gradientUnits="userSpaceOnUse">
<stop stop-color="#FFA400"/>
<stop offset="1" stop-color="#FFEA34"/>
</linearGradient>
<linearGradient id="paint7_linear_1145_15371" x1="3.41619" y1="23.7975" x2="3.41619" y2="9.79234" gradientUnits="userSpaceOnUse">
<stop offset="0.66" stop-color="#FA9300"/>
<stop offset="0.85" stop-color="#F66A00"/>
<stop offset="1" stop-color="#F63F00"/>
</linearGradient>
<radialGradient id="paint8_radial_1145_15371" cx="0" cy="0" r="1" gradientUnits="userSpaceOnUse" gradientTransform="translate(5.20234 11.2745) scale(10.9047 13.7542)">
<stop stop-color="#FAA800"/>
<stop offset="0.85" stop-color="#FF7F00"/>
<stop offset="1" stop-color="#F63F00"/>
</radialGradient>
<linearGradient id="paint9_linear_1145_15371" x1="7.75447" y1="11.375" x2="6.1231" y2="7.03377" gradientUnits="userSpaceOnUse">
<stop stop-color="#FFEA34"/>
<stop offset="0.7" stop-color="#FFA400"/>
<stop offset="1" stop-color="#FFBA00"/>
</linearGradient>
<linearGradient id="paint10_linear_1145_15371" x1="6.35152" y1="24.1157" x2="8.03845" y2="19.6516" gradientUnits="userSpaceOnUse">
<stop stop-color="#FFA400"/>
<stop offset="1" stop-color="#FFEA34"/>
</linearGradient>
<clipPath id="clip0_1145_15371">
<rect width="49" height="42" fill="white"/>
</clipPath>
</defs>
</svg>
