<svg width="24" height="24" viewBox="0 0 24 24" fill="none" xmlns="http://www.w3.org/2000/svg">
<circle cx="12" cy="12" r="11.5" fill="url(#paint0_linear_316_1194)" stroke="url(#paint1_linear_316_1194)"/>
<path d="M17.4833 7.69396C17.9442 7.96003 18.3269 8.34264 18.5931 8.8034C18.8593 9.26415 18.9997 9.78683 19 10.319V14.9156C19.0003 15.4479 18.8602 15.9708 18.5939 16.4316C18.3276 16.8925 17.9446 17.275 17.4833 17.5406L13.5167 19.8331C13.0557 20.0999 12.5326 20.2404 12 20.2404C11.4674 20.2404 10.9443 20.0999 10.4833 19.8331L6.51667 17.529C6.05714 17.2643 5.67518 16.8837 5.40901 16.425C5.14284 15.9664 5.0018 15.4459 5 14.9156L5 10.319C5.00034 9.78683 5.14066 9.26415 5.40688 8.8034C5.67309 8.34264 6.05583 7.96003 6.51667 7.69396L10.4833 5.40729C10.9443 5.14049 11.4674 5 12 5C12.5326 5 13.0557 5.14049 13.5167 5.40729L17.4833 7.69396ZM11.0142 6.44563L7.1525 8.67979C6.85218 8.85112 6.6027 9.09906 6.4295 9.3983C6.25631 9.69754 6.16561 10.0374 6.16667 10.3831V14.8456C6.16621 15.1913 6.25716 15.5309 6.4303 15.83C6.60343 16.1291 6.85259 16.3772 7.1525 16.549L11.0142 18.7831C11.3143 18.955 11.6541 19.0455 12 19.0455C12.3459 19.0455 12.6857 18.955 12.9858 18.7831L16.8475 16.549C17.1474 16.3772 17.3966 16.1291 17.5697 15.83C17.7428 15.5309 17.8338 15.1913 17.8333 14.8456V10.3831C17.8344 10.0374 17.7437 9.69754 17.5705 9.3983C17.3973 9.09906 17.1478 8.85112 16.8475 8.67979L12.9858 6.44563C12.6857 6.27371 12.3459 6.18327 12 6.18327C11.6541 6.18327 11.3143 6.27371 11.0142 6.44563V6.44563ZM12.8108 7.69396L15.8558 9.44396C16.1 9.58492 16.3032 9.78711 16.4454 10.0306C16.5876 10.274 16.6639 10.5504 16.6667 10.8323V14.3323C16.6671 14.6164 16.5923 14.8956 16.4499 15.1415C16.3075 15.3874 16.1025 15.5912 15.8558 15.7323L12.8108 17.4823C12.5647 17.6258 12.2849 17.7014 12 17.7014C11.7151 17.7014 11.4353 17.6258 11.1892 17.4823L8.14417 15.7323C7.90342 15.5947 7.70227 15.3973 7.56021 15.1592C7.41816 14.9211 7.34001 14.6503 7.33333 14.3731V10.8323C7.33714 10.5514 7.41388 10.2762 7.55602 10.0339C7.69816 9.79152 7.90083 9.59025 8.14417 9.44979L11.1892 7.69979C11.4353 7.55631 11.7151 7.48071 12 7.48071C12.2849 7.48071 12.5647 7.55631 12.8108 7.69979V7.69396ZM10.25 14.3615H13.75V10.8615H10.25V14.3615Z" fill="white"/>
<defs>
<linearGradient id="paint0_linear_316_1194" x1="2.5" y1="0.5" x2="23" y2="22.5" gradientUnits="userSpaceOnUse">
<stop stop-color="#8039DA"/>
<stop offset="1" stop-color="#1379C4"/>
</linearGradient>
<linearGradient id="paint1_linear_316_1194" x1="12" y1="0" x2="12" y2="24" gradientUnits="userSpaceOnUse">
<stop stop-color="white" stop-opacity="0.5"/>
<stop offset="1" stop-color="white" stop-opacity="0"/>
</linearGradient>
</defs>
</svg>
